<svg xmlns="http://www.w3.org/2000/svg" viewBox="0 20 256.04998779296875 33.5" data-asc="1.065" width="256.04998779296875" height="33.5"><defs/><g fill="#002aff"><g transform="translate(0, 0)"><path d="M14.50 53.25L0 53.25L0 21.75Q0 21.20 0.95 20.85Q1.90 20.50 3.20 20.32Q4.50 20.15 5.65 20.07Q6.80 20 7.25 20L27.25 20Q27.70 20 28.85 20.07Q30 20.15 31.30 20.32Q32.60 20.50 33.55 20.85Q34.50 21.20 34.50 21.75L34.50 34.70Q34.50 35.05 33.73 35.45Q32.95 35.85 31.90 36.27Q30.85 36.70 29.93 37Q29 37.30 28.65 37.45L35.90 53L21.50 53.50Q21.30 53.05 20.70 51.75Q20.10 50.45 19.25 48.65Q18.40 46.85 17.50 44.92Q16.60 43 15.80 41.27Q15 39.55 14.50 38.45L14.50 53.25M20 34.20L20 23.50L14.50 23.50L14.50 36.35Q15.15 35.95 16.15 35.58Q17.15 35.20 18.23 34.85Q19.30 34.50 20 34.20ZM70.40 49.85L70.40 53.25L45.90 53.25Q45.50 53.25 44.38 53.17Q43.25 53.10 41.98 52.92Q40.70 52.75 39.80 52.40Q38.90 52.05 38.90 51.55L38.90 29.95Q38.90 29.40 39.80 29.07Q40.70 28.75 41.98 28.57Q43.25 28.40 44.38 28.32Q45.50 28.25 45.90 28.25L63.90 28.25Q64.30 28.25 65.43 28.32Q66.55 28.40 67.83 28.57Q69.10 28.75 70 29.07Q70.90 29.40 70.90 29.95L70.90 44.45Q70.90 44.95 70 45.30Q69.10 45.65 67.83 45.83Q66.55 46 65.43 46.08Q64.30 46.15 63.90 46.15L59.85 46.15Q59.35 46.15 58.30 46.10Q57.25 46.05 56.10 45.88Q54.95 45.70 54.05 45.40Q53.15 45.10 52.90 44.65L52.90 49.85L70.40 49.85M52.90 42.75L56.90 42.75L56.90 31.65L52.90 31.65L52.90 42.75ZM87.90 53.25L73.90 53.25L73.90 28.25L98.90 28.25Q99.30 28.25 100.43 28.32Q101.55 28.40 102.83 28.57Q104.10 28.75 105 29.07Q105.90 29.40 105.90 29.95L105.90 53.25L91.90 53.25L91.90 31.65L87.90 31.65L87.90 53.25ZM108.90 32.65L108.90 29.25L113.40 29.25L113.40 22.25L126.40 22.25L126.40 29.25L132.40 29.25L132.40 32.65L126.40 32.65L126.40 49.85L132.40 49.85L132.40 53.25L119.40 53.25Q119 53.25 117.88 53.17Q116.75 53.10 115.48 52.92Q114.20 52.75 113.30 52.40Q112.40 52.05 112.40 51.55L112.40 34.80Q112.40 34.35 113.08 34.05Q113.75 33.75 114.75 33.58Q115.75 33.40 116.78 33.30Q117.80 33.20 118.55 33.15L118.55 32.65L108.90 32.65ZM136.35 31.65L136.35 28.25L160.85 28.25Q161.25 28.25 162.38 28.32Q163.50 28.40 164.78 28.57Q166.05 28.75 166.95 29.07Q167.85 29.40 167.85 29.95L167.85 51.55Q167.85 52.05 166.95 52.40Q166.05 52.75 164.78 52.92Q163.50 53.10 162.38 53.17Q161.25 53.25 160.85 53.25L142.40 53.25Q142 53.25 140.88 53.17Q139.75 53.10 138.47 52.92Q137.20 52.75 136.30 52.40Q135.40 52.05 135.40 51.55L135.40 37.80Q135.40 37.25 136.30 36.92Q137.20 36.60 138.47 36.42Q139.75 36.25 140.88 36.17Q142 36.10 142.40 36.10L146.85 36.10Q147.40 36.10 148.43 36.15Q149.45 36.20 150.60 36.38Q151.75 36.55 152.65 36.85Q153.55 37.15 153.80 37.60Q153.85 37.65 153.85 37.80L153.85 31.65L136.35 31.65M153.85 39.50L149.40 39.50L149.40 49.85L153.85 49.85L153.85 39.50ZM195.70 28.25L195.70 31.65L184.70 31.65L184.70 49.85L195.70 49.85L195.70 53.25L177.70 53.25Q177.30 53.25 176.18 53.17Q175.05 53.10 173.78 52.92Q172.50 52.75 171.60 52.40Q170.70 52.05 170.70 51.55L170.70 29.95Q170.70 29.40 171.60 29.07Q172.50 28.75 173.78 28.57Q175.05 28.40 176.18 28.32Q177.30 28.25 177.70 28.25L195.70 28.25ZM199.65 31.65L199.65 28.25L224.15 28.25Q224.55 28.25 225.68 28.32Q226.80 28.40 228.08 28.57Q229.35 28.75 230.25 29.07Q231.15 29.40 231.15 29.95L231.15 51.55Q231.15 52.05 230.25 52.40Q229.35 52.75 228.08 52.92Q226.80 53.10 225.68 53.17Q224.55 53.25 224.15 53.25L205.70 53.25Q205.30 53.25 204.18 53.17Q203.05 53.10 201.78 52.92Q200.50 52.75 199.60 52.40Q198.70 52.05 198.70 51.55L198.70 37.80Q198.70 37.25 199.60 36.92Q200.50 36.60 201.78 36.42Q203.05 36.25 204.18 36.17Q205.30 36.10 205.70 36.10L210.15 36.10Q210.70 36.10 211.73 36.15Q212.75 36.20 213.90 36.38Q215.05 36.55 215.95 36.85Q216.85 37.15 217.10 37.60Q217.15 37.65 217.15 37.80L217.15 31.65L199.65 31.65M217.15 39.50L212.70 39.50L212.70 49.85L217.15 49.85L217.15 39.50ZM248.00 53.25L234.00 53.25L234.00 29.95Q234.00 29.40 234.90 29.07Q235.80 28.75 237.08 28.57Q238.35 28.40 239.48 28.32Q240.60 28.25 241.00 28.25L256.05 28.25L256.05 31.65L248.00 31.65L248.00 53.25Z"/></g></g></svg>